<svg id="Page-1" xmlns="http://www.w3.org/2000/svg" width="9.767" height="10.335" viewBox="0 0 9.767 10.335">
  <g id="Icons-Communication">
    <g id="phone">
      <path id="Shape" d="M1.953,4.478A8.71,8.71,0,0,0,5.535,8.268L6.729,7a.416.416,0,0,1,.543-.115,5.4,5.4,0,0,0,1.953.344.528.528,0,0,1,.543.574V9.761a.528.528,0,0,1-.543.574A9.5,9.5,0,0,1,0,.574.528.528,0,0,1,.543,0h1.9a.528.528,0,0,1,.543.574A6.846,6.846,0,0,0,3.31,2.641a.741.741,0,0,1-.109.574L1.953,4.478Z" fill="#21242b" fill-rule="evenodd"/>
    </g>
  </g>
</svg>
