<svg xmlns="http://www.w3.org/2000/svg" xmlns:xlink="http://www.w3.org/1999/xlink" width="636" height="499" viewBox="0 0 636 499">
  <defs>
    <linearGradient id="linear-gradient" y1="0.5" x2="1" y2="0.5" gradientUnits="objectBoundingBox">
      <stop offset="0" stop-color="#299e98"/>
      <stop offset="0.555" stop-color="#299e98"/>
      <stop offset="1" stop-color="#299e98"/>
    </linearGradient>
    <linearGradient id="linear-gradient-2" x1="-0.555" y1="1.441" x2="2.614" y2="-0.901" gradientUnits="objectBoundingBox">
      <stop offset="0" stop-color="#299e98"/>
      <stop offset="0.059" stop-color="#299e98"/>
      <stop offset="0.376" stop-color="#299e98" stop-opacity="0.639"/>
      <stop offset="0.723" stop-color="#299e98" stop-opacity="0.443"/>
      <stop offset="1" stop-color="#21242b"/>
    </linearGradient>
    <linearGradient id="linear-gradient-3" x1="-0.406" y1="0.5" x2="1.425" y2="0.5" gradientUnits="objectBoundingBox">
      <stop offset="0" stop-color="#299e98"/>
      <stop offset="0.205" stop-color="#299e98"/>
      <stop offset="0.486" stop-color="#299e98" stop-opacity="0.545"/>
      <stop offset="0.642" stop-color="#299e98" stop-opacity="0.545"/>
      <stop offset="0.838" stop-color="#299e98" stop-opacity="0.545"/>
      <stop offset="0.899" stop-color="#299e98" stop-opacity="0.545"/>
      <stop offset="0.968" stop-color="#299e98" stop-opacity="0.545"/>
      <stop offset="1" stop-color="#299e98" stop-opacity="0.545"/>
    </linearGradient>
    <linearGradient id="linear-gradient-4" y1="0.5" x2="1" y2="0.5" gradientUnits="objectBoundingBox">
      <stop offset="0" stop-color="#299e98" stop-opacity="0.545"/>
      <stop offset="0.05" stop-color="#299e98" stop-opacity="0.545"/>
      <stop offset="0.16" stop-color="#299e98" stop-opacity="0.545"/>
      <stop offset="0.258" stop-color="#299e98" stop-opacity="0.545"/>
      <stop offset="0.336" stop-color="#299e98" stop-opacity="0.545"/>
      <stop offset="0.398" stop-color="#299e98" stop-opacity="0.545"/>
      <stop offset="0.746" stop-color="#299e98" stop-opacity="0.545"/>
      <stop offset="1" stop-color="#299e98"/>
    </linearGradient>
    <radialGradient id="radial-gradient" cx="0.56" cy="0.194" r="0.955" gradientTransform="matrix(0.7, 0.714, -0.714, 0.7, 2.325, 2.538)" gradientUnits="objectBoundingBox">
      <stop offset="0" stop-color="#fbd2ce"/>
      <stop offset="0.002" stop-color="#30b7b0"/>
      <stop offset="0.323" stop-color="#299e98"/>
      <stop offset="0.731" stop-color="#299e98"/>
      <stop offset="0.898" stop-color="#299e98"/>
      <stop offset="1" stop-color="#299e98"/>
    </radialGradient>
    <radialGradient id="radial-gradient-2" cx="0.79" cy="0.386" r="0.955" gradientTransform="matrix(-0.225, 0.974, -0.974, -0.225, 1.138, 12.144)" gradientUnits="objectBoundingBox">
      <stop offset="0" stop-color="#fbd2ce"/>
      <stop offset="0.002" stop-color="#299e98" stop-opacity="0.545"/>
      <stop offset="0.323" stop-color="#299e98" stop-opacity="0.545"/>
      <stop offset="0.731" stop-color="#299e98"/>
      <stop offset="0.898" stop-color="#299e98" stop-opacity="0.545"/>
      <stop offset="1" stop-color="#299e98" stop-opacity="0.545"/>
    </radialGradient>
    <linearGradient id="linear-gradient-5" x1="0.5" y1="0.014" x2="0.5" y2="0.95" gradientUnits="objectBoundingBox">
      <stop offset="0" stop-color="#299e98" stop-opacity="0.545"/>
      <stop offset="0.017" stop-color="#299e98" stop-opacity="0.545"/>
      <stop offset="0.103" stop-color="#299e98" stop-opacity="0.545"/>
      <stop offset="0.185" stop-color="#299e98" stop-opacity="0.545"/>
      <stop offset="0.258" stop-color="#299e98" stop-opacity="0.212"/>
      <stop offset="0.286" stop-color="#299e98" stop-opacity="0.302"/>
      <stop offset="0.398" stop-color="#299e98" stop-opacity="0.545"/>
      <stop offset="0.442" stop-color="#299e98" stop-opacity="0.545"/>
      <stop offset="0.68" stop-color="#299e98" stop-opacity="0.545"/>
      <stop offset="0.875" stop-color="#299e98"/>
      <stop offset="1" stop-color="#299e98"/>
    </linearGradient>
    <linearGradient id="linear-gradient-6" x1="1.593" y1="-0.2" x2="-0.005" y2="0.823" gradientUnits="objectBoundingBox">
      <stop offset="0" stop-color="#299e98" stop-opacity="0.545"/>
      <stop offset="0.228" stop-color="#299e98" stop-opacity="0.545"/>
      <stop offset="0.697" stop-color="#299e98"/>
      <stop offset="1" stop-color="#299e98"/>
    </linearGradient>
    <clipPath id="clip-path">
      <path id="Path_31" data-name="Path 31" d="M224.652,163.588,207.122,174.1l-33.87-8.631,17.53-10.508,17.533-10.51,33.87,8.631Z" transform="translate(-173.252 -144.448)" fill="none"/>
    </clipPath>
    <radialGradient id="radial-gradient-3" cx="0.5" cy="0.5" fy="2.2387783527374268" r="0.448" gradientTransform="matrix(0, 1, -0.96, 0.002, -0.104, 4.202)" gradientUnits="objectBoundingBox">
      <stop offset="0" stop-color="#615750"/>
      <stop offset="0.205" stop-color="#716862" stop-opacity="0.906"/>
      <stop offset="0.512" stop-color="#9e9893" stop-opacity="0.651"/>
      <stop offset="0.881" stop-color="#e7e6e5" stop-opacity="0.231"/>
      <stop offset="0.984" stop-color="#fff" stop-opacity="0.102"/>
    </radialGradient>
    <radialGradient id="radial-gradient-4" fx="0.591678261756897" fy="1.3611624240875244" r="0.242" gradientTransform="matrix(0.306, 0.873, -1.749, 1.561, 0.728, 1.337)" xlink:href="#radial-gradient-3"/>
    <radialGradient id="radial-gradient-5" cx="0.56" cy="0.194" r="0.955" gradientTransform="translate(3 3.795) rotate(45.696)" gradientUnits="objectBoundingBox">
      <stop offset="0" stop-color="#299e98"/>
      <stop offset="0.139" stop-color="#30b7b0"/>
      <stop offset="0.323" stop-color="#30b7b0"/>
      <stop offset="0.737" stop-color="#299e98"/>
      <stop offset="0.898" stop-color="#299e98"/>
      <stop offset="1" stop-color="#299e98"/>
    </radialGradient>
    <radialGradient id="radial-gradient-6" fy="0.5000001192092896" r="0.448" gradientTransform="matrix(0, 1, -0.96, 0, 0.243, -1.461)" xlink:href="#radial-gradient-3"/>
    <radialGradient id="radial-gradient-7" fy="0.5000001788139343" r="0.448" gradientTransform="matrix(0, 1, -0.96, 0, 2.113, -2.337)" xlink:href="#radial-gradient-3"/>
    <radialGradient id="radial-gradient-8" fy="0.4999999701976776" r="0.448" gradientTransform="matrix(0, 1, -0.96, 0, 0.928, -1.487)" xlink:href="#radial-gradient-3"/>
    <radialGradient id="radial-gradient-9" fy="0.49999991059303284" r="0.448" gradientTransform="matrix(0, 1, -0.96, 0, 1.831, -2.284)" xlink:href="#radial-gradient-3"/>
    <radialGradient id="radial-gradient-10" fy="0.5000000596046448" r="0.448" gradientTransform="matrix(0, 1, -0.96, 0, 2.768, -6.236)" xlink:href="#radial-gradient-3"/>
    <radialGradient id="radial-gradient-12" fy="0.49999988079071045" r="0.448" gradientTransform="matrix(0, -1, 0.96, 0, 8.419, 4.142)" xlink:href="#radial-gradient-3"/>
    <radialGradient id="radial-gradient-14" cx="0.802" cy="0.426" r="0.955" gradientTransform="matrix(-0.747, -0.665, -0.665, 0.747, -13.918, -5.299)" gradientUnits="objectBoundingBox">
      <stop offset="0" stop-color="#30b7b0" stop-opacity="0.871"/>
      <stop offset="0.081" stop-color="#30b7b0"/>
      <stop offset="0.323" stop-color="#30b7b0"/>
      <stop offset="0.731" stop-color="#299e98"/>
      <stop offset="0.898" stop-color="#f89b5e"/>
      <stop offset="1" stop-color="#299e98" stop-opacity="0.545"/>
    </radialGradient>
  </defs>
  <g id="Group_99" data-name="Group 99" transform="translate(-1145 844)">
    <rect id="Rectangle_436" data-name="Rectangle 436" width="636" height="499" transform="translate(1145 -844)" fill="none"/>
    <g id="Group_96" data-name="Group 96" transform="translate(-422 -911.371)">
      <g id="Group_42" data-name="Group 42" transform="translate(1669 151)">
        <g id="Group_5" data-name="Group 5" transform="translate(0 178.413)">
          <g id="Group_4" data-name="Group 4">
            <ellipse id="Ellipse_3" data-name="Ellipse 3" cx="80.415" cy="76.833" rx="80.415" ry="76.833" transform="translate(35.166)" fill="#299e98" opacity="0.549"/>
            <ellipse id="Ellipse_4" data-name="Ellipse 4" cx="10.984" cy="10.495" rx="10.984" ry="10.495" transform="translate(0 50.077)" fill="#299e98"/>
          </g>
        </g>
        <g id="Group_41" data-name="Group 41" transform="translate(4.149 0)">
          <g id="Group_7" data-name="Group 7" transform="translate(215.167)">
            <g id="Group_6" data-name="Group 6" style="isolation: isolate">
              <path id="Path_7" data-name="Path 7" d="M427,130.783l-.941-12.164C424.844,102.99,415.677,88.77,401.17,79.7a66.712,66.712,0,0,0-22.848-8.818h0l.942,12.164c17.11,3.281,30.79,12.226,39.074,24.024a50.425,50.425,0,0,1,3.356,5.493,48.261,48.261,0,0,1,2.589,5.82,46.289,46.289,0,0,1,2.712,12.4Z" transform="translate(-341.935 -59.459)" fill="url(#linear-gradient)"/>
              <path id="Path_8" data-name="Path 8" d="M432.394,148.351c.013-.782,0-1.562-.015-2.339,0-.194-.011-.387-.018-.58-.028-.778-.065-1.554-.125-2.326l-.942-12.164c.06.773.1,1.55.126,2.328q.01.287.017.576c.019.778.028,1.559.015,2.343,0,.018,0,.036,0,.054-.014.766-.049,1.536-.094,2.306q-.017.3-.038.592c-.054.789-.12,1.578-.209,2.37,0,.019,0,.039-.007.058-.087.774-.2,1.549-.316,2.325-.031.2-.063.4-.1.6-.132.8-.274,1.591-.44,2.388l-.007.026c-.165.789-.353,1.577-.551,2.366q-.077.3-.156.6c-.21.8-.431,1.6-.678,2.4-.22.714-.461,1.42-.707,2.124-.07.2-.134.405-.206.6q-.435,1.208-.919,2.4c-.077.189-.161.375-.24.563-.252.6-.511,1.2-.781,1.793-.126.276-.258.549-.388.823-.239.5-.482,1.005-.735,1.5q-.219.433-.445.863-.383.73-.786,1.449c-.152.274-.3.548-.461.82-.3.523-.614,1.04-.931,1.554-.132.215-.259.432-.394.646q-.682,1.083-1.4,2.14c-.072.106-.149.208-.222.313q-.624.9-1.275,1.779c-.173.233-.353.463-.529.695q-.519.682-1.056,1.354c-.2.253-.409.5-.615.754q-.527.638-1.069,1.265c-.211.244-.422.488-.636.729-.388.438-.786.87-1.185,1.3-.192.206-.382.415-.576.619q-.849.89-1.728,1.754c-.032.033-.064.066-.1.1q-.93.909-1.9,1.787c-.2.187-.414.368-.621.553q-.607.54-1.225,1.071-1.414,1.21-2.892,2.359c-.188.146-.381.286-.57.43q-1.289.983-2.624,1.916c-.233.163-.465.33-.7.491q-1.554,1.065-3.165,2.066c-.21.13-.425.255-.636.383q-1.4.852-2.839,1.651c-.271.151-.539.3-.812.452-.6.323-1.2.634-1.8.943-.319.163-.636.332-.957.492q-1.192.591-2.407,1.146c-.138.064-.273.132-.411.194q-1.425.645-2.88,1.241c-.289.119-.584.229-.875.345-.683.273-1.368.542-2.06.8-.435.161-.874.313-1.312.467-.5.175-.992.352-1.492.519-.45.149-.9.29-1.356.434-.5.159-1,.319-1.511.469-.457.136-.919.263-1.38.392-.507.143-1.013.284-1.523.418-.466.122-.935.235-1.4.35-.512.125-1.025.25-1.54.367-.531.12-1.064.232-1.6.343-.4.082-.79.167-1.186.243-.574.112-1.151.212-1.728.313-.375.065-.748.135-1.124.2-.64.1-1.283.194-1.927.284-.316.044-.63.094-.947.136q-1.443.186-2.9.328c-.713.069-1.43.118-2.147.17q-1,.072-2,.124-.711.036-1.424.063c-.674.024-1.351.038-2.028.046-.466.006-.932.014-1.4.012-.706,0-1.414-.017-2.122-.035-.437-.012-.874-.018-1.312-.035-.8-.033-1.607-.083-2.411-.137-.353-.024-.705-.038-1.058-.066-.205-.016-.409-.039-.615-.056q-1.166-.1-2.334-.23c-.317-.036-.635-.074-.953-.114q-1.053-.129-2.107-.285c-.3-.043-.6-.085-.893-.132-.979-.154-1.957-.32-2.935-.507l.941,12.164c.978.187,1.956.353,2.936.507.3.046.593.088.889.132q1.057.156,2.112.286c.317.039.633.077.95.113q1.167.131,2.335.23c.2.018.409.04.614.056l.169.015c.3.022.593.03.89.05.8.053,1.608.1,2.41.137.437.017.873.023,1.309.034.709.019,1.418.034,2.126.036.466,0,.931-.006,1.4-.012.678-.009,1.355-.022,2.03-.046.474-.016.948-.039,1.42-.063q1-.051,2-.125c.264-.019.531-.027.8-.049q.675-.056,1.349-.121,1.453-.141,2.9-.328c.319-.041.635-.092.953-.136.641-.089,1.282-.179,1.92-.282.379-.061.756-.132,1.134-.2.574-.1,1.148-.2,1.719-.311.4-.077.794-.162,1.19-.244.375-.078.752-.149,1.125-.231.157-.035.313-.077.47-.112.516-.116,1.028-.242,1.54-.367.469-.115.937-.228,1.4-.35.509-.132,1.015-.275,1.521-.417.462-.129.924-.257,1.384-.393.506-.15,1.007-.31,1.51-.469.452-.143.9-.284,1.354-.433.5-.167,1-.345,1.5-.521.337-.119.679-.23,1.015-.353.1-.036.195-.077.293-.113.689-.256,1.371-.524,2.051-.8.3-.118.593-.229.886-.349q1.451-.6,2.876-1.24c.146-.067.289-.139.435-.205.8-.368,1.6-.744,2.384-1.136.324-.161.643-.331.966-.5.6-.308,1.2-.619,1.8-.94.111-.06.226-.115.338-.177.16-.088.313-.186.472-.275q1.441-.8,2.842-1.652c.211-.129.424-.253.634-.383q1.611-1,3.165-2.065c.236-.162.468-.328.7-.493q1.334-.934,2.624-1.916c.189-.143.381-.284.568-.428q1.478-1.148,2.892-2.359c.081-.07.169-.134.25-.2.332-.287.654-.581.98-.872.205-.183.413-.362.615-.546q.967-.882,1.9-1.79c.03-.029.059-.06.089-.091q.884-.866,1.735-1.76c.2-.2.385-.414.578-.62.4-.429.8-.86,1.184-1.3.214-.242.426-.486.636-.73q.541-.626,1.067-1.263c.207-.25.413-.5.616-.754.358-.447.709-.9,1.056-1.355.177-.232.356-.461.529-.694q.655-.883,1.28-1.785c.071-.1.146-.2.216-.305q.726-1.059,1.407-2.142c.135-.213.261-.431.393-.645.317-.514.629-1.032.932-1.555.156-.271.308-.545.461-.819q.4-.72.786-1.449.226-.431.446-.864c.252-.5.5-1,.734-1.5.13-.273.262-.547.388-.823.271-.593.529-1.191.781-1.793.079-.188.163-.374.24-.563q.484-1.187.919-2.4c.071-.2.135-.4.2-.6.173-.494.348-.988.508-1.488q.1-.32.2-.641c.246-.8.468-1.6.679-2.4q.079-.3.156-.6c.2-.79.388-1.579.552-2.367l.006-.026c.166-.8.309-1.593.44-2.388.033-.2.065-.4.1-.6.119-.775.228-1.548.315-2.319,0-.022.006-.043.008-.065.088-.791.154-1.579.209-2.366.014-.2.026-.4.038-.6s.029-.411.039-.615q.04-.842.054-1.682C432.392,148.392,432.393,148.372,432.394,148.351Z" transform="translate(-333.44 -72.995)" fill="url(#linear-gradient-2)"/>
              <path id="Path_9" data-name="Path 9" d="M373.343,56.134,369.827,67.56c34.276,6.573,54.786,35.875,45.726,65.305-7.188,23.34-30.832,39.86-57.4,42.431a74.464,74.464,0,0,1-21.188-.972l-3.523,11.427a90.38,90.38,0,0,0,25.732,1.181c32.256-3.121,60.964-23.183,69.685-51.515C439.861,99.683,414.959,64.118,373.343,56.134Z" transform="translate(-333.44 -56.134)" fill="rgba(41,158,152,0.4)"/>
            </g>
          </g>
          <g id="Group_11" data-name="Group 11" transform="translate(387.512 241.863)">
            <g id="Group_10" data-name="Group 10" transform="translate(0)" style="isolation: isolate">
              <path id="Path_12" data-name="Path 12" d="M618.687,360.873l.1.009c.29.028.573.064.85.1l.219.033c.221.034.437.073.65.115.076.015.155.028.229.043.134.028.259.06.389.091.178.041.357.082.527.129.09.024.174.053.263.078.256.075.505.156.743.242.095.035.189.069.281.1.255.1.5.206.732.318.044.021.092.039.135.061a8.369,8.369,0,0,1,.753.429c.064.041.122.084.183.126q.258.175.486.364c.06.05.12.1.177.15a5.166,5.166,0,0,1,.47.478c.015.018.034.035.049.053a4.1,4.1,0,0,1,.39.568c.032.056.058.112.087.169a3.384,3.384,0,0,1,.192.455c.021.061.043.122.06.183a3.212,3.212,0,0,1,.116.64v0h0l-.6-9.038a3.238,3.238,0,0,0-.116-.642c-.017-.061-.039-.122-.06-.182a3.424,3.424,0,0,0-.193-.457c-.028-.056-.054-.112-.086-.167a4.057,4.057,0,0,0-.39-.569c-.015-.019-.035-.036-.05-.053a5.057,5.057,0,0,0-.469-.478c-.057-.051-.118-.1-.178-.15-.151-.125-.313-.247-.485-.364-.062-.042-.119-.085-.183-.126a8.5,8.5,0,0,0-.753-.429c-.043-.021-.091-.04-.135-.061-.233-.112-.478-.218-.733-.318-.092-.036-.186-.07-.281-.1q-.359-.13-.743-.243c-.06-.018-.114-.039-.174-.057l-.088-.022c-.171-.046-.349-.088-.527-.129-.1-.025-.2-.053-.31-.076-.026-.006-.053-.01-.079-.016-.075-.015-.153-.029-.229-.043-.139-.027-.276-.056-.42-.08-.075-.013-.154-.022-.231-.035l-.218-.033-.2-.03c-.192-.025-.387-.048-.585-.068l-.067-.005-.1-.009c-.13-.012-.26-.025-.392-.035q-.271-.02-.548-.034h-.021l-.036,0c-.159-.007-.319-.014-.482-.018q-.269-.007-.544-.008h-.032c-.175,0-.35,0-.526,0s-.373.009-.559.017l-.17.008-.131.007c-.1.005-.2.009-.3.016q-.315.02-.628.048l-.221.023-.186.019c-.1.01-.195.019-.292.029q-.445.052-.886.119l-.013,0h0l-.016,0c-.511.077-1.013.174-1.509.28-.057.012-.117.019-.174.032-.072.016-.14.039-.212.056-.563.129-1.118.271-1.656.434l-.07.019-.024.008c-.22.067-.433.143-.649.216-.167.057-.338.109-.5.17-.22.08-.429.167-.642.253-.146.059-.3.113-.442.174l-.011.005c-.406.174-.794.359-1.171.552-.033.017-.07.032-.1.049-.1.053-.194.112-.293.166-.2.108-.4.218-.584.331-.048.029-.1.054-.148.083-.1.06-.183.125-.278.186-.145.095-.289.188-.426.285-.047.033-.1.064-.145.1-.094.069-.176.141-.267.21-.115.089-.232.178-.341.269-.037.032-.08.06-.117.092-.095.081-.177.167-.267.249s-.187.17-.274.256c-.024.025-.054.049-.079.074-.1.1-.184.208-.275.312-.069.078-.142.155-.206.233-.012.016-.028.032-.041.047-.113.144-.209.291-.307.438-.034.052-.076.1-.108.154l-.011.016a5.116,5.116,0,0,0-.329.627l-.014.033a4.016,4.016,0,0,0-.188.543c-.007.021-.017.043-.023.063s-.007.054-.014.082a3.623,3.623,0,0,0-.084.5c0,.02-.009.041-.011.062s0,.016,0,.024a3.237,3.237,0,0,0,0,.444l.6,9.038a3.357,3.357,0,0,1,0-.443c0-.029.008-.058.01-.087a3.658,3.658,0,0,1,.085-.5c.011-.048.022-.1.036-.145a4.333,4.333,0,0,1,.188-.544,5.181,5.181,0,0,1,.354-.674c.032-.053.075-.1.109-.156.108-.163.22-.325.348-.483.064-.08.139-.156.208-.235.113-.129.226-.258.352-.384.087-.087.182-.171.275-.256.124-.115.249-.23.383-.342.109-.091.226-.18.342-.269.134-.1.268-.206.411-.306s.282-.191.426-.285.28-.181.426-.269c.188-.113.386-.222.585-.331.131-.072.26-.145.4-.215.376-.193.765-.379,1.171-.552.147-.064.3-.119.453-.18.212-.086.422-.174.641-.253.164-.06.335-.113.5-.17.215-.073.427-.149.648-.217l.095-.026c.538-.163,1.092-.3,1.656-.434.129-.029.256-.06.386-.088.5-.105,1-.2,1.509-.28l.019,0,.013,0c.389-.059.783-.108,1.178-.149l.187-.019q.57-.057,1.146-.088l.131-.007c.417-.02.837-.031,1.257-.03q.538,0,1.054.026l.041,0C618.055,360.819,618.373,360.844,618.687,360.873Z" transform="translate(-593.552 -348.357)" fill="url(#linear-gradient-3)"/>
              <path id="Path_13" data-name="Path 13" d="M631.784,366.9c0-.012,0-.024,0-.036a4.947,4.947,0,0,0,0-.667l-.6-9.039a4.821,4.821,0,0,1,0,.667c0,.043-.011.086-.015.128a5.5,5.5,0,0,1-.127.751c-.017.072-.033.144-.053.217a6.426,6.426,0,0,1-.283.816,7.7,7.7,0,0,1-.532,1.013c-.049.078-.111.154-.163.232-.163.246-.332.49-.524.729-.095.118-.205.232-.307.349-.171.2-.343.39-.533.581-.131.13-.273.257-.411.385-.187.173-.375.345-.576.513-.164.136-.339.27-.513.4-.2.155-.4.31-.618.46s-.423.287-.641.428-.42.273-.639.4c-.283.17-.579.333-.876.5-.2.108-.392.218-.6.323-.565.289-1.148.569-1.758.83-.221.094-.455.18-.681.27-.319.128-.634.26-.963.38-.243.089-.5.167-.747.251-.326.111-.648.226-.982.328q-.8.246-1.634.459c-.161.041-.325.078-.488.118q-.538.131-1.086.247c-.745.159-1.5.3-2.266.421l-.031.005-.029,0c-.583.088-1.172.16-1.763.223l-.278.029q-.859.084-1.724.131l-.2.01c-.628.03-1.258.047-1.889.046q-.811,0-1.589-.039l-.054,0c-.491-.024-.97-.06-1.44-.1l-.154-.014c-.435-.043-.86-.1-1.277-.156l-.327-.049c-.332-.052-.657-.11-.976-.171-.116-.022-.234-.043-.349-.067-.2-.042-.388-.091-.583-.136-.267-.063-.536-.125-.792-.194-.358-.1-.709-.2-1.045-.313-.062-.02-.122-.043-.183-.064q-.448-.153-.867-.323c-.079-.032-.16-.064-.237-.1-.319-.134-.628-.274-.922-.422-.046-.022-.088-.047-.134-.071-.254-.131-.5-.267-.73-.408l-.2-.122c-.259-.164-.509-.333-.742-.509-.03-.022-.058-.047-.088-.07-.2-.158-.4-.322-.576-.49-.052-.048-.1-.1-.153-.144a7.334,7.334,0,0,1-.547-.586c-.016-.019-.029-.04-.045-.06a6.378,6.378,0,0,1-.406-.57c-.035-.053-.068-.108-.1-.163a5.454,5.454,0,0,1-.336-.654c0-.012-.008-.026-.013-.038a4.909,4.909,0,0,1-.212-.649c-.015-.06-.03-.119-.043-.179a4.745,4.745,0,0,1-.108-.712l.6,9.039a4.866,4.866,0,0,0,.108.712c.013.06.028.119.043.178a4.839,4.839,0,0,0,.213.651c0,.012.007.024.012.036a5.464,5.464,0,0,0,.336.655c.032.055.066.108.1.163a6.145,6.145,0,0,0,.408.571c.015.019.028.039.044.059a7.325,7.325,0,0,0,.548.586c.049.049.1.1.152.144.182.167.373.332.578.49.029.023.056.046.086.07.233.176.482.345.743.509.065.041.132.081.2.122.234.141.476.277.73.408.045.023.088.048.134.071q.441.222.922.422c.078.033.158.064.238.1q.42.17.866.323l.184.064c.3.1.6.192.91.28.044.012.091.021.135.033.257.07.525.132.793.2.156.036.3.079.463.113l.12.023c.114.023.232.043.348.066.208.04.414.084.627.119.115.019.234.035.35.053l.326.049c.1.014.2.031.3.045q.433.057.879.1l.1.009.153.014c.194.018.387.036.584.051q.407.03.825.051l.032,0,.054,0c.238.011.479.021.722.027q.4.01.819.012h.048q.4,0,.791-.007c.281-.005.562-.014.841-.026.086,0,.171-.009.256-.013l.2-.011c.149-.008.3-.014.448-.023q.473-.031.945-.074c.11-.009.22-.022.33-.033l.28-.029c.146-.016.294-.028.439-.045q.665-.078,1.322-.177l.029,0h.006l.026,0c.766-.118,1.52-.263,2.266-.421.086-.019.175-.029.261-.049.278-.061.55-.132.825-.2.162-.039.326-.076.487-.117.541-.139,1.076-.287,1.6-.447l.035-.012c.331-.1.649-.216.973-.325.251-.085.509-.164.756-.254.328-.12.64-.251.957-.379.222-.089.453-.172.67-.265l.015-.007c.61-.262,1.193-.541,1.758-.83.05-.026.107-.048.156-.074.154-.079.291-.167.441-.249.3-.163.593-.326.876-.5.071-.043.151-.082.221-.125.146-.09.276-.187.418-.279.218-.141.435-.282.64-.428.07-.05.149-.1.217-.145.142-.1.266-.211.4-.315.173-.134.349-.266.512-.4.056-.046.121-.091.175-.138.143-.122.267-.251.4-.376s.281-.254.41-.384c.037-.037.082-.073.118-.111.15-.154.276-.313.413-.469.1-.117.213-.232.308-.35.019-.023.043-.046.062-.07.171-.216.315-.438.462-.659.051-.077.113-.153.162-.231,0-.008.011-.015.016-.022a7.8,7.8,0,0,0,.5-.942l.021-.049a6.279,6.279,0,0,0,.282-.816c.009-.031.025-.064.033-.1s.011-.081.021-.122a5.388,5.388,0,0,0,.126-.75C631.771,366.957,631.781,366.926,631.784,366.9Z" transform="translate(-592.026 -349.578)" fill="url(#linear-gradient-4)"/>
              <g id="Group_9" data-name="Group 9">
                <path id="Path_14" data-name="Path 14" d="M615.96,347.374c10.547.024,17.148,4.569,14.745,10.154s-12.9,10.092-23.444,10.068-17.148-4.569-14.745-10.154S605.414,347.351,615.96,347.374Zm-7.245,16.843c7.018.016,14.006-2.985,15.606-6.7s-2.8-6.745-9.815-6.761-14.006,2.985-15.6,6.7,2.8,6.744,9.814,6.76" transform="translate(-592.023 -347.374)" fill="#30b7b0"/>
              </g>
            </g>
          </g>
          <g id="Group_14" data-name="Group 14" transform="translate(48.006 84.675)">
            <g id="Group_13" data-name="Group 13" style="isolation: isolate">
              <path id="Path_15" data-name="Path 15" d="M224.652,163.588,207.122,174.1l-33.87-8.631,17.53-10.508,17.533-10.51,33.87,8.631Z" transform="translate(-173.252 -144.448)" fill="#299e98"/>
              <path id="Path_16" data-name="Path 16" d="M231.563,268.728l-58.311-97.147,33.87,8.631Z" transform="translate(-173.252 -150.564)" fill="rgba(41,158,152,0.76)"/>
              <g id="Group_12" data-name="Group 12" transform="translate(33.87 8.631)">
                <path id="Path_17" data-name="Path 17" d="M239.471,265.124,250.094,155.59,232.56,166.1l-17.53,10.508Z" transform="translate(-215.03 -155.59)" fill="rgba(41,158,152,0.55)"/>
              </g>
            </g>
          </g>
          <path id="Path_103" data-name="Path 103" d="M24.16.522C37.5.811,48.553,12.028,48.841,25.578A23.125,23.125,0,0,1,25.2,49.589C11.861,49.3.811,38.083.522,24.533A23.125,23.125,0,0,1,24.16.522Z" transform="matrix(0.576, -0.818, 0.818, 0.576, 206.635, 77.564)" fill="url(#radial-gradient)"/>
          <path id="Path_104" data-name="Path 104" d="M13.6.307A14.325,14.325,0,0,1,27.5,14.136,12.843,12.843,0,0,1,14.211,27.351,14.325,14.325,0,0,1,.307,13.522,12.843,12.843,0,0,1,13.6.307Z" transform="translate(58.727 243.02) rotate(-41.507)" fill="url(#radial-gradient-2)"/>
          <g id="Group_19" data-name="Group 19" transform="translate(379.782 93.626)">
            <g id="Group_18" data-name="Group 18" style="isolation: isolate">
              <g id="Group_44" data-name="Group 44">
                <g id="Group_15" data-name="Group 15">
                  <path id="Path_18" data-name="Path 18" d="M595.638,156l-13.15,10.585,4.177,21.481,13.15-10.585Z" transform="translate(-582.489 -156.003)" fill="#299e98"/>
                </g>
                <g id="Group_16" data-name="Group 16" transform="translate(4.177 21.609)">
                  <path id="Path_19" data-name="Path 19" d="M600.722,183.4l-13.081,10.458,20.651,1.744,13.081-10.458Z" transform="translate(-587.641 -183.4)" fill="#299e98"/>
                </g>
              </g>
              <g id="Group_17" data-name="Group 17" transform="translate(13.15)">
                <path id="Path_20" data-name="Path 20" d="M619.469,157.748,598.708,156l4.177,21.222,20.76,1.744Z" transform="translate(-598.708 -156.003)" fill="rgba(41,158,152,0.55)"/>
              </g>
            </g>
          </g>
          <g id="Group_21" data-name="Group 21" transform="translate(311.319 138.325)">
            <g id="Group_20" data-name="Group 20" style="isolation: isolate">
              <path id="Path_21" data-name="Path 21" d="M521.314,324.367c.259.067.518.126.779.179.151.029.3.06.452.085.277.046.556.08.835.109.131.013.262.032.393.042.409.031.82.047,1.232.041l13.242-.1c-.412.006-.823-.01-1.232-.041-.131-.009-.261-.028-.392-.042-.28-.029-.559-.063-.837-.109-.152-.025-.3-.055-.452-.085-.26-.053-.52-.112-.779-.179-.15-.039-.3-.078-.45-.122-.27-.079-.538-.17-.807-.265-.131-.046-.261-.088-.392-.139-.407-.157-.812-.329-1.214-.523-.041-.019-.079-.043-.119-.063q-.545-.268-1.081-.581c-.127-.074-.255-.155-.382-.233-.273-.168-.545-.343-.815-.528q-.2-.139-.406-.284c-.276-.2-.55-.409-.822-.626-.113-.09-.227-.176-.34-.269-.379-.314-.754-.641-1.125-.989-.042-.04-.083-.083-.125-.123q-.494-.468-.975-.977c-.117-.124-.234-.254-.351-.382q-.372-.407-.739-.836c-.123-.144-.246-.29-.367-.438-.25-.305-.5-.62-.743-.943-.1-.138-.212-.271-.315-.412-.136-.184-.269-.375-.4-.564-.155-.218-.31-.434-.462-.658-.133-.2-.263-.4-.394-.6-.149-.229-.3-.456-.446-.691-.13-.208-.257-.421-.385-.634-.143-.239-.288-.479-.43-.724-.126-.218-.25-.442-.373-.665-.132-.239-.264-.477-.394-.72-.221-.414-.437-.84-.651-1.27-.071-.144-.145-.284-.216-.429q-.422-.868-.825-1.777c-.063-.142-.122-.289-.184-.431-.2-.471-.406-.948-.6-1.435-.089-.222-.177-.448-.264-.674q-.249-.64-.49-1.3c-.088-.242-.176-.484-.262-.73-.16-.452-.315-.913-.468-1.376-.076-.229-.153-.456-.227-.689q-.286-.9-.555-1.823c-.029-.1-.061-.2-.089-.3-.206-.718-.4-1.451-.593-2.193-.057-.22-.109-.445-.164-.667-.132-.533-.261-1.069-.384-1.613q-.12-.53-.234-1.067c-.059-.277-.118-.552-.176-.831-.083-.407-.161-.82-.24-1.232-.051-.268-.1-.534-.152-.8-.083-.46-.161-.926-.238-1.393-.038-.23-.079-.457-.115-.689q-.167-1.053-.315-2.129c-.112-.816-.209-1.633-.3-2.45q-.035-.32-.069-.638c-.055-.517-.1-1.035-.149-1.552-.042-.457-.083-.914-.118-1.371s-.067-.924-.1-1.386-.059-.914-.084-1.37-.043-.924-.062-1.386-.036-.912-.048-1.368-.02-.92-.027-1.38-.013-.912-.015-1.366c0-.415,0-.829.007-1.243q.007-.862.027-1.723.016-.609.037-1.214.03-.855.074-1.706c.02-.4.041-.8.066-1.192.036-.577.078-1.152.122-1.726.029-.38.057-.76.09-1.138.054-.609.116-1.213.18-1.817.037-.356.07-.715.111-1.07.02-.173.042-.345.063-.518q.114-.954.246-1.9c.027-.193.053-.385.08-.576q.164-1.145.352-2.274c.02-.119.042-.237.063-.356q.167-.974.35-1.933c.038-.2.076-.4.116-.6.147-.743.3-1.481.46-2.21l.008-.036c.16-.72.329-1.43.5-2.136q.07-.286.143-.57.237-.933.49-1.848c.028-.1.053-.2.08-.3q.292-1.038.606-2.051c.053-.172.108-.342.161-.514q.263-.831.538-1.644c.049-.143.1-.288.145-.43q.338-.977.7-1.926c.054-.142.109-.28.163-.421q.3-.777.611-1.535c.065-.156.128-.312.193-.467.257-.609.518-1.21.788-1.8.042-.092.086-.181.128-.273q.353-.761.719-1.5c.077-.153.153-.306.23-.458.288-.565.58-1.123.88-1.665l.008-.014c.3-.537.6-1.058.913-1.571q.125-.208.252-.412c.274-.443.551-.878.834-1.3.048-.072.094-.146.142-.218.325-.481.657-.947.992-1.4.086-.115.173-.229.259-.343q.419-.553.849-1.08c.076-.094.152-.19.229-.281q.524-.627,1.064-1.212c.079-.086.161-.168.24-.253q.449-.475.908-.92c.094-.091.188-.184.283-.273.375-.353.753-.693,1.137-1.016.058-.048.117-.092.174-.14q.5-.414,1.02-.791.158-.117.318-.231c.4-.283.8-.555,1.214-.8a16.362,16.362,0,0,1,5.93-2.261,13.9,13.9,0,0,1,1.959-.172h0l-13.241.1a15.563,15.563,0,0,0-7.889,2.433c-.409.249-.813.522-1.214.8l-.318.23c-.344.253-.683.515-1.02.792-.058.048-.117.092-.174.14-.384.321-.763.662-1.137,1.015-.1.09-.19.183-.285.275q-.458.445-.907.919c-.079.085-.161.167-.24.253q-.54.586-1.064,1.212c-.077.093-.152.189-.229.283q-.429.525-.848,1.078c-.087.115-.173.228-.259.345-.336.455-.667.919-.991,1.4-.049.071-.095.146-.143.218q-.423.636-.833,1.3c-.084.136-.168.273-.251.411-.31.514-.615,1.035-.914,1.572l-.008.014c-.3.542-.593,1.1-.88,1.666-.076.151-.152.3-.228.455q-.368.738-.722,1.5c-.041.091-.085.179-.126.27q-.4.883-.788,1.8c-.065.155-.129.312-.193.468q-.312.758-.611,1.534c-.054.141-.109.28-.163.422q-.358.949-.7,1.926c-.049.142-.1.287-.145.43q-.276.812-.538,1.641c-.054.172-.109.344-.163.517q-.312,1.013-.6,2.048c-.028.1-.054.2-.082.3q-.253.911-.488,1.84c-.049.191-.1.383-.144.576-.174.7-.344,1.414-.5,2.133l-.008.036c-.162.73-.314,1.469-.461,2.212q-.058.3-.114.594-.184.96-.35,1.933c-.021.12-.043.239-.063.36q-.189,1.127-.352,2.27c-.028.193-.053.387-.081.582q-.13.941-.244,1.891c-.021.175-.044.349-.064.524-.01.087-.022.172-.032.259-.03.267-.051.538-.079.806-.063.6-.126,1.211-.18,1.82-.033.378-.061.758-.09,1.137-.045.575-.087,1.15-.122,1.727-.025.4-.045.793-.066,1.191q-.043.852-.074,1.706c-.015.4-.027.808-.037,1.213q-.021.86-.027,1.724c0,.252-.011.5-.012.755,0,.162,0,.325,0,.486,0,.455.007.911.015,1.367s.014.919.027,1.38.03.912.048,1.368.037.923.062,1.385.054.914.083,1.37.061.924.1,1.387.077.916.118,1.373c.027.3.047.59.077.885.022.221.049.442.072.662s.045.428.07.641c.092.817.19,1.634.3,2.449q.146,1.076.315,2.127c.037.236.079.468.117.7.076.462.154.925.236,1.38.049.272.1.54.153.809.078.412.156.823.239,1.229.058.28.118.557.177.834.052.242.1.488.153.728.026.113.054.222.08.334q.186.82.385,1.62c.054.22.106.443.162.661q.286,1.114.593,2.194c.028.1.06.2.089.3q.269.926.555,1.824c.074.232.151.459.226.688q.23.7.469,1.377c.087.246.174.488.262.73q.241.656.49,1.3c.088.225.175.451.264.673.2.487.4.964.6,1.436.062.143.122.289.184.431q.4.909.825,1.777c.071.146.143.284.215.428.214.431.431.857.652,1.272.037.07.073.144.11.214.092.173.19.336.284.506.124.224.247.448.373.666.142.246.286.485.43.724.128.213.255.427.385.634.148.235.3.462.446.691.131.2.261.4.394.6.152.224.307.44.462.658.134.189.267.38.4.564.031.042.061.088.092.129.073.1.149.186.223.283q.368.483.744.943c.121.148.243.293.366.437q.366.431.74.838c.117.127.233.256.349.38q.485.511.981.983c.041.038.079.079.119.117.371.348.747.675,1.127.99.112.093.226.179.339.269.272.217.546.427.823.626q.2.145.4.284.406.278.816.529c.127.078.254.159.381.233q.536.311,1.081.581c.04.019.079.043.119.062.4.194.807.366,1.214.524.034.013.067.031.1.043.1.036.195.061.291.1.268.1.536.185.806.265C521.014,324.289,521.164,324.328,521.314,324.367Z" transform="translate(-498.041 -213.71)" fill="url(#linear-gradient-5)"/>
              <path id="Path_22" data-name="Path 22" d="M568.622,253.016c-4-29.32-19.169-45.823-33.879-36.872s-23.4,39.97-19.394,69.289,19.171,45.813,33.882,36.861S572.622,282.327,568.622,253.016Z" transform="translate(-501.133 -213.709)" fill="url(#linear-gradient-6)"/>
            </g>
          </g>
          <g id="Group_25" data-name="Group 25" transform="translate(0 27.873)">
            <g id="Group_24" data-name="Group 24" style="isolation: isolate">
              <path id="Path_24" data-name="Path 24" d="M157.994,105.379l-3.411-14.028,14.262-20.234,3.411,14.028,3.411,14.03-14.262,20.234Z" transform="translate(-121.712 -71.117)" fill="#299e98"/>
              <path id="Path_25" data-name="Path 25" d="M114.038,90.258l47.133-19.141L146.909,91.351Z" transform="translate(-114.038 -71.117)" fill="rgba(41,158,152,0.55)"/>
              <g id="Group_23" data-name="Group 23" transform="translate(0 19.141)">
                <path id="Path_26" data-name="Path 26" d="M114.038,95.827l39.693,29.152-3.411-14.03-3.411-14.028Z" transform="translate(-114.038 -95.827)" fill="rgba(41,158,152,0.76)"/>
              </g>
            </g>
          </g>
          <path id="Path_27" data-name="Path 27" d="M291.914,88.086a2.068,2.068,0,0,1-1.9-1.2,4.746,4.746,0,0,0-4.348-2.505,5.765,5.765,0,0,0-3.726,1.493,9.434,9.434,0,0,1-5.917,2.207,8.233,8.233,0,0,1-7.708-4.993,1.95,1.95,0,0,1,1.227-2.531,2.092,2.092,0,0,1,2.641,1.154,4.1,4.1,0,0,0,3.84,2.426,5.428,5.428,0,0,0,3.444-1.421,9.817,9.817,0,0,1,6.2-2.28,8.917,8.917,0,0,1,8.142,4.9,1.941,1.941,0,0,1-1.084,2.59A2.16,2.16,0,0,1,291.914,88.086Z" transform="translate(-143.216 -45.346)" fill="#299e98"/>
          <path id="Path_28" data-name="Path 28" d="M167.423,262.086a1.7,1.7,0,0,1-1.561-.984,3.9,3.9,0,0,0-3.577-2.061,4.739,4.739,0,0,0-3.065,1.23,7.766,7.766,0,0,1-4.868,1.814,6.77,6.77,0,0,1-6.341-4.107,1.6,1.6,0,0,1,1.009-2.083,1.727,1.727,0,0,1,2.174.95,3.364,3.364,0,0,0,3.158,2,4.468,4.468,0,0,0,2.833-1.169,8.071,8.071,0,0,1,5.1-1.876,7.334,7.334,0,0,1,6.7,4.028,1.6,1.6,0,0,1-.891,2.13A1.766,1.766,0,0,1,167.423,262.086Z" transform="translate(-120.448 -84.87)" fill="#299e98"/>
          <path id="Path_29" data-name="Path 29" d="M625.587,324.385a1.486,1.486,0,0,1-1.363-.858,3.406,3.406,0,0,0-3.121-1.8,4.137,4.137,0,0,0-2.675,1.073,6.775,6.775,0,0,1-4.248,1.584,5.908,5.908,0,0,1-5.534-3.585,1.4,1.4,0,0,1,.88-1.817,1.505,1.505,0,0,1,1.9.829,2.939,2.939,0,0,0,2.756,1.741,3.9,3.9,0,0,0,2.473-1.019,7.043,7.043,0,0,1,4.451-1.638,6.4,6.4,0,0,1,5.845,3.515,1.392,1.392,0,0,1-.778,1.859A1.533,1.533,0,0,1,625.587,324.385Z" transform="translate(-207.64 -99.092)" fill="#299e98"/>
          <g id="Group_28" data-name="Group 28" transform="translate(48.006 84.675)">
            <g id="Group_27" data-name="Group 27" clip-path="url(#clip-path)">
              <g id="Group_26" data-name="Group 26" transform="translate(19.351 -28.288)" opacity="0.78">
                <path id="Path_105" data-name="Path 105" d="M42.329.8c23.378.439,42.436,6.34,42.568,13.179S66.184,26,42.806,25.563.37,19.223.239,12.384,18.951.356,42.329.8Z" transform="translate(0 38.758) rotate(-28.318)" opacity="0.35" fill="url(#radial-gradient-3)" style="mix-blend-mode: multiply;isolation: isolate"/>
                <path id="Path_30" data-name="Path 30" d="M243.441,153.06c-20.606,11.021-40.115,15.168-43.575,9.261s10.439-19.628,31.045-30.649,40.114-15.167,43.575-9.261S264.046,142.039,243.441,153.06Z" transform="translate(-197.541 -110.587)" opacity="0.56" fill="url(#radial-gradient-4)" style="mix-blend-mode: color-burn;isolation: isolate"/>
              </g>
            </g>
          </g>
          <path id="Path_106" data-name="Path 106" d="M15.748.34A16.718,16.718,0,0,1,31.835,16.674,15.076,15.076,0,0,1,16.428,32.328,16.718,16.718,0,0,1,.34,15.994,15.076,15.076,0,0,1,15.748.34Z" transform="translate(54.551 91.385) rotate(-54.96)" fill="url(#radial-gradient-5)"/>
          <path id="Path_107" data-name="Path 107" d="M73.294,1.658c40.479.916,73.553,13.19,73.873,27.417s-32.236,25.017-72.716,24.1S.9,39.986.579,25.759,32.815.742,73.294,1.658Z" transform="matrix(0.654, -0.756, 0.756, 0.654, 96.168, 297.496)" opacity="0.56" fill="url(#radial-gradient-6)" style="mix-blend-mode: color-burn;isolation: isolate"/>
          <path id="Path_108" data-name="Path 108" d="M31.326.385c17.3.213,31.464,12.1,31.635,26.556s-13.716,26-31.016,25.786S.48,40.625.309,26.171,14.025.172,31.326.385Z" transform="matrix(0.275, -0.961, 0.961, 0.275, 230.709, 182.755)" opacity="0.56" fill="url(#radial-gradient-7)" style="mix-blend-mode: color-burn;isolation: isolate"/>
          <path id="Path_109" data-name="Path 109" d="M38.058.491C59.076.762,76.266,12.263,76.453,26.178s-16.7,24.977-37.72,24.706S.523,39.113.337,25.2,17.039.22,38.058.491Z" transform="matrix(0.953, -0.302, 0.302, 0.953, 193.148, 138.782)" opacity="0.56" fill="url(#radial-gradient-8)" style="mix-blend-mode: color-burn;isolation: isolate"/>
          <path id="Path_110" data-name="Path 110" d="M30.715.4C47.678.615,61.58,12.073,61.767,25.989s-13.414,25.02-30.377,24.8S.523,39.113.337,25.2,13.751.177,30.715.4Z" transform="translate(169.718 151.069) rotate(-17.606)" opacity="0.56" fill="url(#radial-gradient-9)" style="mix-blend-mode: color-burn;isolation: isolate"/>
          <g id="Group_34" data-name="Group 34" transform="translate(130.966 168.9)">
            <path id="Path_111" data-name="Path 111" d="M50.221,1.115c27.737.616,50.461,11.8,50.756,24.976S79.027,49.453,51.291,48.837.83,37.039.535,23.861,22.485.5,50.221,1.115Z" transform="matrix(0.776, -0.631, 0.631, 0.776, 0, 61.646)" opacity="0.35" fill="url(#radial-gradient-10)" style="mix-blend-mode: multiply;isolation: isolate"/>
            <path id="Path_112" data-name="Path 112" d="M50.221,1.115c27.737.616,50.461,11.8,50.756,24.976S79.027,49.453,51.291,48.837.83,37.039.535,23.861,22.485.5,50.221,1.115Z" transform="matrix(0.776, -0.631, 0.631, 0.776, 0, 61.646)" opacity="0.56" fill="url(#radial-gradient-10)" style="mix-blend-mode: color-burn;isolation: isolate"/>
          </g>
          <g id="Group_39" data-name="Group 39" transform="translate(134.136 171.71)">
            <g id="Group_38" data-name="Group 38" style="isolation: isolate">
              <g id="Group_35" data-name="Group 35" transform="translate(17.514)">
                <path id="Path_35" data-name="Path 35" d="M301.093,262.417l26.091-5.609,23.547,25.163-26.091,5.609Z" transform="translate(-301.093 -256.808)" fill="rgba(82,216,209,0.55)"/>
              </g>
              <g id="Group_36" data-name="Group 36" transform="translate(23.547 25.163)">
                <path id="Path_36" data-name="Path 36" d="M326.049,294.9l26.091-5.609-17.514,26.244-26.091,5.609Z" transform="translate(-308.535 -289.293)" fill="rgba(57,234,225,0.72)"/>
              </g>
              <g id="Group_37" data-name="Group 37" transform="translate(0 5.609)">
                <path id="Path_37" data-name="Path 37" d="M279.49,290.293,297,264.049l23.547,25.163-17.514,26.244Z" transform="translate(-279.49 -264.049)" fill="#299e98"/>
              </g>
            </g>
          </g>
          <g id="Group_40" data-name="Group 40" transform="translate(340.453 160.565)">
            <path id="Path_113" data-name="Path 113" d="M28.041.029C43.528.045,56.093,11.036,56.106,24.577s-12.53,24.5-28.016,24.489S.038,38.059.024,24.518,12.554.013,28.041.029Z" transform="translate(0 56.066) rotate(-88.717)" opacity="0.35" fill="url(#radial-gradient-12)" style="mix-blend-mode: multiply;isolation: isolate"/>
            <path id="Path_114" data-name="Path 114" d="M28.041.029C43.528.045,56.093,11.036,56.106,24.577s-12.53,24.5-28.016,24.489S.038,38.059.024,24.518,12.554.013,28.041.029Z" transform="translate(0 56.066) rotate(-88.717)" opacity="0.56" fill="url(#radial-gradient-12)" style="mix-blend-mode: color-burn;isolation: isolate"/>
          </g>
          <path id="Path_38" data-name="Path 38" d="M559.862,249.451a18.4,18.4,0,0,0,1.623,26.811,20.531,20.531,0,0,0,28.062-1.551,18.4,18.4,0,0,0-1.624-26.811A20.529,20.529,0,0,0,559.862,249.451Z" transform="translate(-197.471 -82.006)" fill="url(#radial-gradient-14)"/>
        </g>
      </g>
    </g>
  </g>
</svg>
