<svg xmlns="http://www.w3.org/2000/svg" width="10.802" height="13.518" viewBox="0 0 10.802 13.518">
  <path id="iconfinder_lock_1608769" d="M323,134.145h4.8V132.3a2.4,2.4,0,0,0-.7-1.738,2.36,2.36,0,0,0-3.394,0,2.4,2.4,0,0,0-.7,1.738Zm7.8.922v5.53a.9.9,0,0,1-.263.653.858.858,0,0,1-.638.269h-9a.858.858,0,0,1-.638-.269A.9.9,0,0,1,320,140.6v-5.53a.9.9,0,0,1,.263-.653.858.858,0,0,1,.638-.269h.3V132.3a4.189,4.189,0,0,1,1.238-3.034,4.1,4.1,0,0,1,5.926,0A4.189,4.189,0,0,1,329.6,132.3v1.843h.3a.858.858,0,0,1,.638.269A.9.9,0,0,1,330.8,135.066Z" transform="translate(-320 -128)" fill="#fff"/>
</svg>
