<svg xmlns="http://www.w3.org/2000/svg" width="22.618" height="15.362" viewBox="0 0 22.618 15.362">
  <g id="Icons" transform="translate(-4 -4)">
    <path id="Path_165" data-name="Path 165" d="M4.942,6H25.676a.972.972,0,0,0,.942-1,.972.972,0,0,0-.942-1H4.942A.972.972,0,0,0,4,5,.972.972,0,0,0,4.942,6Z" fill="#299e98"/>
    <path id="Path_166" data-name="Path 166" d="M25.676,26H4.942a1,1,0,0,0,0,2H25.676a1,1,0,0,0,0-2Z" transform="translate(0 -8.638)" fill="#299e98"/>
    <path id="Path_167" data-name="Path 167" d="M25.676,15H4.942a1,1,0,0,0,0,2H25.676a1,1,0,0,0,0-2Z" transform="translate(0 -4.319)" fill="#299e98"/>
  </g>
</svg>
