<svg xmlns="http://www.w3.org/2000/svg" width="41.019" height="41.523" viewBox="0 0 41.019 41.523">
  <g id="Icons" transform="translate(-29.906 -13.906)">
    <g id="Group_3" data-name="Group 3" transform="translate(30.656 14.656)">
      <ellipse id="pexels-creation-hill-1681010" cx="19.76" cy="20.012" rx="19.76" ry="20.012" fill="none" stroke="#21242b" stroke-linecap="round" stroke-linejoin="round" stroke-miterlimit="10" stroke-width="1.5"/>
      <g id="Group_1" data-name="Group 1" transform="translate(8.203 3.561)">
        <path id="Path_1" data-name="Path 1" d="M21.451,11.627a16.371,16.371,0,0,1,2.078-.24" transform="translate(-13.177 -11.386)" fill="none" stroke="#21242b" stroke-linecap="round" stroke-linejoin="round" stroke-miterlimit="10" stroke-width="1.5"/>
        <path id="Path_2" data-name="Path 2" d="M15.026,15.637A17.842,17.842,0,0,1,21.6,11.874" transform="translate(-15.026 -11.238)" fill="none" stroke="#21242b" stroke-linecap="round" stroke-linejoin="round" stroke-miterlimit="10" stroke-width="1.5"/>
      </g>
      <g id="Group_2" data-name="Group 2" transform="translate(9.895 10.298)">
        <ellipse id="Ellipse_2" data-name="Ellipse 2" cx="5.751" cy="5.825" rx="5.751" ry="5.825" transform="translate(4.113)" fill="none" stroke="#21242b" stroke-linecap="round" stroke-linejoin="round" stroke-miterlimit="10" stroke-width="1.5"/>
        <path id="Path_3" data-name="Path 3" d="M16.34,32.771a5.652,5.652,0,0,1,5.6-5.671h8.529a5.652,5.652,0,0,1,5.6,5.671" transform="translate(-16.34 -13.344)" fill="none" stroke="#21242b" stroke-linecap="round" stroke-linejoin="round" stroke-miterlimit="10" stroke-width="1.5"/>
      </g>
    </g>
  </g>
</svg>
